<svg xmlns="http://www.w3.org/2000/svg" viewBox="0 0 80 54" width="80" height="54">
  <rect width="80" height="18.0" fill="#74ACDF"/>
  <rect y="18.0" width="80" height="18.0" fill="#FFFFFF"/>
  <rect y="36.0" width="80" height="18.0" fill="#74ACDF"/>
  <!-- Sol de Mayo simplificado -->
  <circle cx="40" cy="27" r="5.5" fill="#F6B40E" stroke="#85340A" stroke-width="0.5"/>
  <line x1="40" y1="19" x2="40" y2="21" stroke="#F6B40E" stroke-width="1.2" transform="rotate(0,40,27)"/><line x1="40" y1="19" x2="40" y2="21" stroke="#F6B40E" stroke-width="1.2" transform="rotate(24,40,27)"/><line x1="40" y1="19" x2="40" y2="21" stroke="#F6B40E" stroke-width="1.2" transform="rotate(48,40,27)"/><line x1="40" y1="19" x2="40" y2="21" stroke="#F6B40E" stroke-width="1.2" transform="rotate(72,40,27)"/><line x1="40" y1="19" x2="40" y2="21" stroke="#F6B40E" stroke-width="1.2" transform="rotate(96,40,27)"/><line x1="40" y1="19" x2="40" y2="21" stroke="#F6B40E" stroke-width="1.2" transform="rotate(120,40,27)"/><line x1="40" y1="19" x2="40" y2="21" stroke="#F6B40E" stroke-width="1.2" transform="rotate(144,40,27)"/><line x1="40" y1="19" x2="40" y2="21" stroke="#F6B40E" stroke-width="1.2" transform="rotate(168,40,27)"/><line x1="40" y1="19" x2="40" y2="21" stroke="#F6B40E" stroke-width="1.2" transform="rotate(192,40,27)"/><line x1="40" y1="19" x2="40" y2="21" stroke="#F6B40E" stroke-width="1.2" transform="rotate(216,40,27)"/><line x1="40" y1="19" x2="40" y2="21" stroke="#F6B40E" stroke-width="1.2" transform="rotate(240,40,27)"/><line x1="40" y1="19" x2="40" y2="21" stroke="#F6B40E" stroke-width="1.2" transform="rotate(264,40,27)"/><line x1="40" y1="19" x2="40" y2="21" stroke="#F6B40E" stroke-width="1.2" transform="rotate(288,40,27)"/><line x1="40" y1="19" x2="40" y2="21" stroke="#F6B40E" stroke-width="1.2" transform="rotate(312,40,27)"/><line x1="40" y1="19" x2="40" y2="21" stroke="#F6B40E" stroke-width="1.2" transform="rotate(336,40,27)"/><line x1="40" y1="19" x2="40" y2="21" stroke="#F6B40E" stroke-width="1.2" transform="rotate(360,40,27)"/>
</svg>