<svg xmlns="http://www.w3.org/2000/svg" viewBox="0 0 80 54" width="80" height="54">
  <rect width="80" height="54" fill="#FFFFFF"/>
  <rect y="0.0" width="80" height="6.0" fill="#75AADB"/><rect y="12.0" width="80" height="6.0" fill="#75AADB"/><rect y="24.0" width="80" height="6.0" fill="#75AADB"/><rect y="36.0" width="80" height="6.0" fill="#75AADB"/><rect y="48.0" width="80" height="6.0" fill="#75AADB"/>
  <rect width="26" height="24" fill="#FFFFFF"/>
  <!-- Sol de Mayo -->
  <circle cx="13" cy="12" r="5" fill="#F6B40E" stroke="#85340A" stroke-width="0.4"/>
  <line x1="13" y1="5" x2="13" y2="6.5" stroke="#F6B40E" stroke-width="1" transform="rotate(0,13,12)"/><line x1="13" y1="5" x2="13" y2="6.5" stroke="#F6B40E" stroke-width="1" transform="rotate(24,13,12)"/><line x1="13" y1="5" x2="13" y2="6.5" stroke="#F6B40E" stroke-width="1" transform="rotate(48,13,12)"/><line x1="13" y1="5" x2="13" y2="6.5" stroke="#F6B40E" stroke-width="1" transform="rotate(72,13,12)"/><line x1="13" y1="5" x2="13" y2="6.5" stroke="#F6B40E" stroke-width="1" transform="rotate(96,13,12)"/><line x1="13" y1="5" x2="13" y2="6.5" stroke="#F6B40E" stroke-width="1" transform="rotate(120,13,12)"/><line x1="13" y1="5" x2="13" y2="6.5" stroke="#F6B40E" stroke-width="1" transform="rotate(144,13,12)"/><line x1="13" y1="5" x2="13" y2="6.5" stroke="#F6B40E" stroke-width="1" transform="rotate(168,13,12)"/><line x1="13" y1="5" x2="13" y2="6.5" stroke="#F6B40E" stroke-width="1" transform="rotate(192,13,12)"/><line x1="13" y1="5" x2="13" y2="6.5" stroke="#F6B40E" stroke-width="1" transform="rotate(216,13,12)"/><line x1="13" y1="5" x2="13" y2="6.5" stroke="#F6B40E" stroke-width="1" transform="rotate(240,13,12)"/><line x1="13" y1="5" x2="13" y2="6.5" stroke="#F6B40E" stroke-width="1" transform="rotate(264,13,12)"/><line x1="13" y1="5" x2="13" y2="6.5" stroke="#F6B40E" stroke-width="1" transform="rotate(288,13,12)"/><line x1="13" y1="5" x2="13" y2="6.5" stroke="#F6B40E" stroke-width="1" transform="rotate(312,13,12)"/><line x1="13" y1="5" x2="13" y2="6.5" stroke="#F6B40E" stroke-width="1" transform="rotate(336,13,12)"/><line x1="13" y1="5" x2="13" y2="6.5" stroke="#F6B40E" stroke-width="1" transform="rotate(360,13,12)"/>
</svg>